# xmcd
#
# Track frame offsets:
#	183
#	16108
#	24253
#	42625
#	58428
#	80023
#	93940
#	113868
#	130303
#	148388
#	163520
#	176195
#	197325
#	207443
#	218783
#	231758
#	249868
#
# Disc length: 3408 seconds
#
# Revision: 12
# Processed by: cddbd v1.5.2PL0 Copyright (c) Steve Scherf et al.
# Submitted via: EasyCDDAExtractor 16.0.6.1
#
DISCID=f20d4e11
DTITLE=Louis Armstrong - JB-005 Mack The Knife
DYEAR=1900
DGENRE=Blues
TTITLE0=Mack The Knife
TTITLE1=Stomping At The Savoy
TTITLE2=Ain't Misbehavin'
TTITLE3=When The Saints Go Marchin' In
TTITLE4=Tea For Two
TTITLE5=A Kiss To Build A dream On
TTITLE6=I Can't Give You Anything But Love
TTITLE7=Muskrat Ramble
TTITLE8=Cabaret
TTITLE9=On The Sunny Side Of The Street
TTITLE10=Lover
TTITLE11=Jeepers Creeppers
TTITLE12=Way Down Yonder In New Orleans
TTITLE13=Tiger Rag
TTITLE14=C'est Si Bon
TTITLE15=Back O'Town Blues
TTITLE16=When It's Sleepy Time Down South
EXTD=This is 1992 Trace Trading compilation.\nLiecensed from Red Dog Express.\n
EXTD=No: 0400602\nBar Code: 7/42304/00602/8
EXTT0=B.Brecht/K.Well
EXTT1=A.Razaf/B.Goodman/E.Samson/C.Webb
EXTT2=A.Razaf/T.Waller/H.Brooks
EXTT3=K.Purvis/J.Black
EXTT4=I.Caesar/V.Youmans
EXTT5=B.Kalmar/H.Ruby/O.Hammerstien.II
EXTT6=D.Fields/J.McHugh
EXTT7=R.Giilbert/E.Ory
EXTT8=F.Ebb/J.Kander
EXTT9=D.Fields/J.McHugh
EXTT10=L.Hart/R.Rodgers
EXTT11=J.Mercer/H.Warren
EXTT12=H.Creamer/J.T.Layton
EXTT13=H.DeCosta/Original Dixieland Jazz Band
EXTT14=A.Hornez/H.Betti/J.Seelen
EXTT15=Russel/L.Armstrong
EXTT16=L.Rene/O.Rene/C.Muse
PLAYORDER=
